<?xml version="1.0" encoding="UTF-8"?>
<svg width="36px" height="36px" viewBox="0 0 36 36" version="1.1" xmlns="http://www.w3.org/2000/svg" xmlns:xlink="http://www.w3.org/1999/xlink">
    <!-- Generator: Sketch 57.1 (83088) - https://sketch.com -->
    <title>np_search_1594149_000000</title>
    <desc>Created with Sketch.</desc>
    <g stroke="none" stroke-width="1" fill="none" fill-rule="evenodd">
        <g fill="#FFFFFF" fill-rule="nonzero">
            <path d="M24.582,23.168 L35.707,34.293 L34.2929,35.7071 L23.1679,24.5821 C20.7109,26.711 17.5077,28.0001 13.9999,28.0001 C6.2694,28.0001 -0.0001,21.7306 -0.0001,14.0001 C-0.0001,6.2696 6.2694,0.0001 13.9999,0.0001 C21.7304,0.0001 27.9999,6.2696 27.9999,14.0001 C27.9999,17.5079 26.7108,20.711 24.5819,23.1681 L24.582,23.168 Z M14,26 C20.6289,26 26,20.6289 26,14 C26,7.3711 20.6289,2 14,2 C7.3711,2 2,7.3711 2,14 C2,20.6289 7.3711,26 14,26 Z"></path>
        </g>
    </g>
</svg>